<?xml version="1.0" encoding="UTF-8" standalone="no"?>
<svg width="293px" height="63px" viewBox="0 0 293 63" version="1.1" xmlns="http://www.w3.org/2000/svg" xmlns:xlink="http://www.w3.org/1999/xlink">
    <!-- Generator: Sketch 3.8.1 (29687) - http://www.bohemiancoding.com/sketch -->
    <title>logo-lge</title>
    <desc>Created with Sketch.</desc>
    <defs></defs>
    <g id="Page-1" stroke="none" stroke-width="1" fill="none" fill-rule="evenodd">
        <g id="logo-lge" transform="translate(-9.000000, -11.000000)">
            <path d="M9.24,46.216 C9.304,50.696 9.432,62.088 27.16,62.088 C39.96,62.088 46.872,55.368 46.872,47.048 C46.872,38.024 39,35.848 31,33.928 C24.344,32.264 20.952,31.496 20.952,27.208 C20.952,23.432 23.96,20.936 28.568,20.936 C35.416,20.936 35.928,26.376 36.056,27.976 L45.592,27.976 C45.592,26.44 45.592,22.728 42.968,19.4 C39.512,15.048 33.816,13.96 29.016,13.96 C16.152,13.96 10.712,20.68 10.712,28.296 C10.712,36.296 16.728,39.56 27.736,42.312 C33.624,43.72 36.504,44.424 36.504,48.52 C36.504,52.424 33.112,54.984 27.736,54.984 C19.224,54.984 19.352,48.392 19.352,46.216 L9.24,46.216 Z M79.16,47.24 C79.288,44.552 79.416,39.816 77.24,35.4 C74.296,29.384 68.792,27.592 64.184,27.592 C60.664,27.592 57.592,28.616 55.096,30.28 C49.656,34.056 48.376,40.328 48.376,45.576 C48.376,50.76 49.592,55.112 52.536,58.184 C55.928,61.704 61.176,62.216 63.928,62.216 C68.664,62.216 72.888,60.936 75.256,58.44 C77.88,55.688 78.2,52.936 78.328,51.4 L69.688,51.4 C68.792,54.984 66.424,55.88 64.056,55.88 C57.464,55.88 57.464,49.352 57.464,47.24 L79.16,47.24 Z M57.784,41.288 C57.976,37.512 59.704,34.056 63.864,34.056 C69.368,34.056 69.496,39.816 69.496,41.288 L57.784,41.288 Z M105.08,28.616 L104.76,33.288 C103.992,32.008 101.624,27.976 94.968,27.976 C88.568,27.976 81.336,32.008 81.336,44.424 C81.336,56.776 89.016,61.448 95.544,61.448 C100.984,61.448 103.544,58.376 104.504,57.224 L104.504,73.288 L114.232,73.288 L114.232,34.824 C114.232,33.544 114.424,29.192 114.424,28.616 L105.08,28.616 Z M91,44.68 C91,39.816 92.152,34.184 97.592,34.184 C104.12,34.184 105.016,41.352 105.016,44.872 C105.016,48.392 104.248,55.176 98.104,55.176 C96.76,55.176 94.584,54.92 93.112,52.872 C91.256,50.376 91,46.792 91,44.68 L91,44.68 Z M117.096,28.68 L117.096,48.776 C117.096,50.376 117.096,54.856 119.208,57.48 C121,59.848 124.584,61.832 128.936,61.832 C135.08,61.832 137.512,58.12 138.472,56.712 L138.792,61 L148.008,61 C147.88,60.104 147.816,59.528 147.752,58.632 C147.752,57.8 147.688,56.968 147.56,49.992 L147.56,28.68 L137.832,28.68 L137.832,45 C137.832,50.504 137.832,55.048 131.752,55.048 C126.696,55.048 126.696,50.76 126.696,47.944 L126.696,28.68 L117.096,28.68 Z M180.952,47.24 C181.08,44.552 181.208,39.816 179.032,35.4 C176.088,29.384 170.584,27.592 165.976,27.592 C162.456,27.592 159.384,28.616 156.888,30.28 C151.448,34.056 150.168,40.328 150.168,45.576 C150.168,50.76 151.384,55.112 154.328,58.184 C157.72,61.704 162.968,62.216 165.72,62.216 C170.456,62.216 174.68,60.936 177.048,58.44 C179.672,55.688 179.992,52.936 180.12,51.4 L171.48,51.4 C170.584,54.984 168.216,55.88 165.848,55.88 C159.256,55.88 159.256,49.352 159.256,47.24 L180.952,47.24 Z M159.576,41.288 C159.768,37.512 161.496,34.056 165.656,34.056 C171.16,34.056 171.288,39.816 171.288,41.288 L159.576,41.288 Z M184.104,61 L193.576,61 L193.576,14.728 L184.104,14.728 L184.104,61 Z M211.688,61 L221.736,61 L221.736,43.016 L228.456,43.016 C230.888,43.016 235.56,43.016 238.952,40.84 C242.6,38.472 244.839999,33.9720642 244.84,28.552 C244.84,25.3959752 243.801688,22.0639375 242.024,19.912 C238.184,15.304 232.616,14.856 225.96,14.856 L211.688,14.856 L211.688,61 Z M221.48,22.344 L226.472,22.344 C229.288,22.344 234.6,22.344 234.6,28.616 C234.6,35.656 228.648,35.656 225.448,35.656 L221.48,35.656 L221.48,22.344 Z M247.672,61 L257.144,61 L257.144,45.064 C257.144,41.032 257.72,36.104 267.32,37 L267.32,28.488 C259.64,28.104 257.528,32.008 256.312,34.76 L256.12,28.552 L247.224,28.552 C247.416,30.408 247.672,35.08 247.672,36.616 L247.672,61 Z M268.136,45.128 C268.136,56.456 275.432,62.152 284.648,62.152 C296.36,62.152 301.608,53.96 301.608,44.872 C301.608,35.848 296.552,27.912 284.84,27.912 C272.104,27.912 268.136,37.32 268.136,45.128 L268.136,45.128 Z M277.864,45.192 C277.864,42.248 277.928,34.248 284.84,34.248 C291.112,34.248 291.944,40.2 291.944,44.488 C291.944,53.064 289.128,55.56 284.968,55.56 C280.296,55.56 277.864,52.424 277.864,45.192 L277.864,45.192 Z" id="Sequel-Pro-Copy" fill-opacity="0.257727582" fill="#004068"></path>
            <path d="M9.24,44.216 C9.304,48.696 9.432,60.088 27.16,60.088 C39.96,60.088 46.872,53.368 46.872,45.048 C46.872,36.024 39,33.848 31,31.928 C24.344,30.264 20.952,29.496 20.952,25.208 C20.952,21.432 23.96,18.936 28.568,18.936 C35.416,18.936 35.928,24.376 36.056,25.976 L45.592,25.976 C45.592,24.44 45.592,20.728 42.968,17.4 C39.512,13.048 33.816,11.96 29.016,11.96 C16.152,11.96 10.712,18.68 10.712,26.296 C10.712,34.296 16.728,37.56 27.736,40.312 C33.624,41.72 36.504,42.424 36.504,46.52 C36.504,50.424 33.112,52.984 27.736,52.984 C19.224,52.984 19.352,46.392 19.352,44.216 L9.24,44.216 Z M79.16,45.24 C79.288,42.552 79.416,37.816 77.24,33.4 C74.296,27.384 68.792,25.592 64.184,25.592 C60.664,25.592 57.592,26.616 55.096,28.28 C49.656,32.056 48.376,38.328 48.376,43.576 C48.376,48.76 49.592,53.112 52.536,56.184 C55.928,59.704 61.176,60.216 63.928,60.216 C68.664,60.216 72.888,58.936 75.256,56.44 C77.88,53.688 78.2,50.936 78.328,49.4 L69.688,49.4 C68.792,52.984 66.424,53.88 64.056,53.88 C57.464,53.88 57.464,47.352 57.464,45.24 L79.16,45.24 Z M57.784,39.288 C57.976,35.512 59.704,32.056 63.864,32.056 C69.368,32.056 69.496,37.816 69.496,39.288 L57.784,39.288 Z M105.08,26.616 L104.76,31.288 C103.992,30.008 101.624,25.976 94.968,25.976 C88.568,25.976 81.336,30.008 81.336,42.424 C81.336,54.776 89.016,59.448 95.544,59.448 C100.984,59.448 103.544,56.376 104.504,55.224 L104.504,71.288 L114.232,71.288 L114.232,32.824 C114.232,31.544 114.424,27.192 114.424,26.616 L105.08,26.616 Z M91,42.68 C91,37.816 92.152,32.184 97.592,32.184 C104.12,32.184 105.016,39.352 105.016,42.872 C105.016,46.392 104.248,53.176 98.104,53.176 C96.76,53.176 94.584,52.92 93.112,50.872 C91.256,48.376 91,44.792 91,42.68 L91,42.68 Z M117.096,26.68 L117.096,46.776 C117.096,48.376 117.096,52.856 119.208,55.48 C121,57.848 124.584,59.832 128.936,59.832 C135.08,59.832 137.512,56.12 138.472,54.712 L138.792,59 L148.008,59 C147.88,58.104 147.816,57.528 147.752,56.632 C147.752,55.8 147.688,54.968 147.56,47.992 L147.56,26.68 L137.832,26.68 L137.832,43 C137.832,48.504 137.832,53.048 131.752,53.048 C126.696,53.048 126.696,48.76 126.696,45.944 L126.696,26.68 L117.096,26.68 Z M180.952,45.24 C181.08,42.552 181.208,37.816 179.032,33.4 C176.088,27.384 170.584,25.592 165.976,25.592 C162.456,25.592 159.384,26.616 156.888,28.28 C151.448,32.056 150.168,38.328 150.168,43.576 C150.168,48.76 151.384,53.112 154.328,56.184 C157.72,59.704 162.968,60.216 165.72,60.216 C170.456,60.216 174.68,58.936 177.048,56.44 C179.672,53.688 179.992,50.936 180.12,49.4 L171.48,49.4 C170.584,52.984 168.216,53.88 165.848,53.88 C159.256,53.88 159.256,47.352 159.256,45.24 L180.952,45.24 Z M159.576,39.288 C159.768,35.512 161.496,32.056 165.656,32.056 C171.16,32.056 171.288,37.816 171.288,39.288 L159.576,39.288 Z M184.104,59 L193.576,59 L193.576,12.728 L184.104,12.728 L184.104,59 Z M211.688,59 L221.736,59 L221.736,41.016 L228.456,41.016 C230.888,41.016 235.56,41.016 238.952,38.84 C242.6,36.472 244.839999,31.9720642 244.84,26.552 C244.84,23.3959752 243.801688,20.0639375 242.024,17.912 C238.184,13.304 232.616,12.856 225.96,12.856 L211.688,12.856 L211.688,59 Z M221.48,20.344 L226.472,20.344 C229.288,20.344 234.6,20.344 234.6,26.616 C234.6,33.656 228.648,33.656 225.448,33.656 L221.48,33.656 L221.48,20.344 Z M247.672,59 L257.144,59 L257.144,43.064 C257.144,39.032 257.72,34.104 267.32,35 L267.32,26.488 C259.64,26.104 257.528,30.008 256.312,32.76 L256.12,26.552 L247.224,26.552 C247.416,28.408 247.672,33.08 247.672,34.616 L247.672,59 Z M268.136,43.128 C268.136,54.456 275.432,60.152 284.648,60.152 C296.36,60.152 301.608,51.96 301.608,42.872 C301.608,33.848 296.552,25.912 284.84,25.912 C272.104,25.912 268.136,35.32 268.136,43.128 L268.136,43.128 Z M277.864,43.192 C277.864,40.248 277.928,32.248 284.84,32.248 C291.112,32.248 291.944,38.2 291.944,42.488 C291.944,51.064 289.128,53.56 284.968,53.56 C280.296,53.56 277.864,50.424 277.864,43.192 L277.864,43.192 Z" id="Sequel-Pro" fill="#FFFFFF"></path>
        </g>
    </g>
</svg>